<?xml version="1.0" encoding="UTF-8"?>
<svg id="Lager_1" xmlns="http://www.w3.org/2000/svg" version="1.1" viewBox="0 0 374 330">
  <!-- Generator: Adobe Illustrator 29.5.1, SVG Export Plug-In . SVG Version: 2.1.0 Build 141)  -->
  <defs>
    <style>
      .st0 {
        fill: #472778;
      }
    </style>
  </defs>
  <g>
    <path class="st0" d="M81,138.6c33.5-3.8,59,22.2,49.7,55.7-3.3,12-17.4,26.6-30.5,20.5-15.6-7.2,1.7-28.7-7.2-42.8s-12.9-6.9-19.8-2.1c-42.1,29.5-31.3,145.3,32.3,102.3,6.9-4.7,13.9-15.8,19.2-.8,9.1,26.1-19.4,48.8-43,51-107.5,9.9-90.9-173.5-.7-183.7Z"/>
    <path class="st0" d="M318,169.6c61.8-6,67.9,113.7,5.4,126.4-77.1,15.7-72.1-120-5.4-126.4ZM318.9,194.5c-19.6,2.3-24.8,44.2-18.8,58.3,8.7,20.4,28.3,7.3,33.5-8.6,4-12.2,5.9-52.2-14.7-49.8Z"/>
    <path class="st0" d="M213.2,256.3c2.3,13.6,13.9,16.6,26,12.5s17.1-15.4,21.8-5.7c7.7,15.8-15.3,34.1-28.9,37.6-64.5,16.8-66.6-91.7-18.9-115.9,25-12.6,51.1-1.5,47.9,28.9s-25.3,41.1-47.9,42.6ZM210.2,238.3c10.1.2,27-13.3,27-23.5s-2.5-9.1-4-10c-12.7-7.6-25.8,24.1-23,33.5Z"/>
    <path class="st0" d="M160.9,162.6c7.9-1.6,16.9.3,18.2,9.4-3.6,19.8-8.8,39.1-11.8,59s-6.3,37.3-.7,45.3,15.8-2,15.5,11.5c-.5,22.6-36.1,29.8-47.2,7.2-10.1-20.6,1.4-84.8,8.9-107.5s8.1-23.1,17-25Z"/>
  </g>
  <g>
    <path class="st0" d="M253.1,15.8c1.7-.6,3.7-.8,5.3-1.9.1,0,.3,0,.4,0,2.7,0,4.3-.9,6.4,1.7,3.9,4.9-2.2,14.1-5.2,18.4,0,.1,4.4,6.5,4.8,7.2,1.5,2.6,2.7,5.3,3.8,8.1,2.1,5.5,3.6,11.2,4.6,17,4.9,28.2-6.8,57.6-25.8,78.3-9.9,10.7-21.8,19.3-34.7,25.9-4.9,2.5-21.9,12.8-21.5.4.2-4.5,1.4-7-.8-11.6-4.6-9.8-13.8-10.3-22.5-14.1-16.6-7.2-29.6-18.9-38-35-1-2-2.6-5.5-3.4-7.5s-1.4-4-1.9-5.6c-4.5-16.6-3.2-35.5,3-51.5s1.8-4.5,2.5-6,3.1-3.7,3.8-5.6c.2-1.1-2-3.6-2.5-4.5-1.8-3.7-3.9-9.2-2.9-13.3s10.8.4,13.5,1c5.2,1.3,10.6,1.5,15.5-1,23.2-12.1,48.7-14.4,73.1-3.7,9.9,4.3,11.2,7.2,22.7,3.5ZM233.5,41.9c-10.3.5-20.2,6.6-24.9,15.7s-7.8,27.8-16.5,13.5-4.6-17.3-16.4-24.2c-31.8-18.6-53.6,24.5-32.1,49,23,26.4,85.9,26.3,108.7-.8s7.6-54.5-18.7-53.3Z"/>
    <path class="st0" d="M195.3,105.2c-2.9-2.6-7.4-9.5-7.9-13.3-1.8-11.8,22.2-10.9,20.5.4-.5,3.1-4.8,10.1-7,12.5s-2.8,2.8-5.5.4Z"/>
    <path class="st0" d="M165.8,64.4c6.6-.5,12.6,3.8,15.3,9.7s2.3,8.4-2.2,8.3-4.8-3.8-7.4-5.5-6-3-9.9-1.6-6.6,5.8-9.7,2.4-.3-4.8,1-6.6c2.7-3.6,8.5-6.3,12.9-6.7Z"/>
    <path class="st0" d="M225.9,64.4c5.1-.7,11.7,1.9,15.1,5.7s3.8,4.9,2.1,7.3c-3,4.1-7.6-1.9-10.6-2.5s-8.1.7-11,3.5-2.4,4.3-5.4,4-2.9-6-1.9-8.7c1.8-4.7,6.7-8.6,11.8-9.3Z"/>
  </g>
</svg>